<svg xmlns="http://www.w3.org/2000/svg" data-name="Layer 1" viewBox="0 0 41.31 122.61250000000001" x="0px" y="0px"><path d="M70.21,91.05a5.66,5.66,0,0,0-.44.75,3.46,3.46,0,0,1-3.93,2.07c-.59-.17-1-1.08-1.38-1.73A7.25,7.25,0,0,1,64,90.33a3.07,3.07,0,0,0-2.52-2.51c-.94-.25-1.66-1.28-2.46-1.94a3.77,3.77,0,0,1-5.26,1.79,1.29,1.29,0,0,0-1.92.85A7,7,0,0,1,49.29,92a1.76,1.76,0,0,0-.42,1.32c0,1.94,0,3.87-1.72,5.36a2.7,2.7,0,0,1-4.3-1.37c-.71-2.63-1-5.37-1.62-8a6,6,0,0,0-1.09-2,2.6,2.6,0,0,0-3.49-.87,1.82,1.82,0,0,1-1.28,0c-1.72-.79-3.42-1.64-5.09-2.53a2.34,2.34,0,0,1-1.15-2.4,10.74,10.74,0,0,1,1.35-4.72,9.31,9.31,0,0,0,.74-3.55c.32-4.07.67-8.13.78-12.2.16-5.4.11-10.81.1-16.22a1.77,1.77,0,0,0-.61-1,3.47,3.47,0,0,1,.4-5.63c2.17-1.47,4.32-3.12,7.13-3.22,1.32,0,2.65.09,4,.13h2c-.5-1.11-1-2.05-1.34-3-1.37-3.48-.44-6.61,1.46-9.65,1.51-2.41,3-4.86,4.25-7.38,1.75-3.45,2.34-7.22,2.79-11a10.42,10.42,0,0,1,1.18-2.66c0-.05.06-.09.14,0a6,6,0,0,1,1.62,2.87A27,27,0,0,0,58,13.68,18.47,18.47,0,0,1,59.7,27.33c-.46,1.86-1.23,3.64-1.9,5.58a14.1,14.1,0,0,1,1.45,0,46.66,46.66,0,0,1,5.7.64,4.64,4.64,0,0,1,3.65,3.1c1.13,3.52.78,7.59-2.88,9.92a1.6,1.6,0,0,0-.69,1c-.13,1.81-.19,3.63-.24,5.44,0,1.35,0,2.7,0,4,0,.43-.07.85,0,1.27.34,3.06.79,6.12,1,9.19a4.68,4.68,0,0,1-.87,3.07,2.48,2.48,0,0,0-.69,2.4,23,23,0,0,0,1.92,4.93,26.06,26.06,0,0,1,3.32,8c.25,1.25.68,2.48,1,3.72ZM47.87,36.69a2.45,2.45,0,0,0-.76,0,14.55,14.55,0,0,1-6,.25,10.51,10.51,0,0,0-7.93,2.54C32,40.38,32,41.26,33,42.35a4.44,4.44,0,0,1,1.13,2.32,49.35,49.35,0,0,1,.29,6.87c-.17,4.57-.55,9.13-.79,13.7-.15,3.09-.11,6.2-.35,9.29a16.58,16.58,0,0,1-1.08,3.59,19.7,19.7,0,0,0-.89,3c-.15,1,.68,1.74,1.76,1.88a2.94,2.94,0,0,1,1.74.56c.88,1,1.77.92,2.88.54,1.64-.57,2.25-.32,3.26,1.07a2,2,0,0,0,.6.49,3.33,3.33,0,0,1,1.72,2.62c.52,2.68,1,5.37,1.53,8.05.07.3.43.76.66.77a1.07,1.07,0,0,0,.81-.63A7.18,7.18,0,0,0,46.55,94a3.93,3.93,0,0,1,1.83-4.17,3.54,3.54,0,0,0,1.12-1.63c1.1-2.6,2.63-3.29,5.39-2.45.41.12,1-.15,1.44-.24A8.65,8.65,0,0,0,56,84.24,9.4,9.4,0,0,1,55,82a7.62,7.62,0,0,1,.4-2.6c.22-.86,1.52-1.27,2-.6a2.52,2.52,0,0,1,.27,1.65c-.08.94-.64,1.92.44,2.63,1.35.9,2.87,1.57,3.76,3,.07.11.42,0,.62.1a3.57,3.57,0,0,1,2.79,2.36c.37,1.12.83,2.21,1.37,3.61.3-.64.62-1,.63-1.37a21.49,21.49,0,0,0-.14-4.25,23.4,23.4,0,0,0-1.33-3.79,17.81,17.81,0,0,0-1.28-3.36,11.72,11.72,0,0,1-2.11-7.68c-1.76-.45-3.09-1.37-3.39-3.24-.27-1.67-.47-3.35-.62-5,0-.29.27-1.35.47-1.35s1,.76,1.11,1a14.77,14.77,0,0,1,.36,2.5A4.41,4.41,0,0,0,61.88,69c.83.62,1.42.44,1.54-.56a11.91,11.91,0,0,0,0-2.53c-.23-3-.58-5.9-.72-8.86-.12-2.58.29-5.21-.11-7.74a4.45,4.45,0,0,1,2-4.79c2.33-1.68,2.54-4,2.11-6.51a3,3,0,0,0-2-2.26A13.25,13.25,0,0,0,58,35.11a12.44,12.44,0,0,0-2.89.42c-1.5.56-2.91,1.34-4.42,2.06l-.23,4.25c4.08-.85,8.44.11,12.33-2.29.53-.37-.18-.58-.31-.74-.61-.78-1.87-1.5-.72-1.89a2,2,0,0,1,2.06.25c1.8,1.48,1.69,3.88-.48,4.74a24.86,24.86,0,0,1-6.69,1.61c-3,.28-6.11.1-9.07,1.13a5.83,5.83,0,0,1-2.72.15c-2.58-.59-5.15-1.28-7.67-2.09a4.24,4.24,0,0,1-2-1.56c-.28-.4.09-1.18.41-1.53a3.48,3.48,0,0,1,1.69-1.17c.32-.07,1.28.08,1.47.64-.24.39-1.21.28-1.48.65-.11.14-.4.32-.45.56s.35.32.35.42c3.58.45,6.78,3.14,10.64,1.67Zm-.29-2.48c.06-.18.11-.26.1-.34s-.07-.33-.09-.49c-.39-2.83-.48-5.57,1.58-8a4.45,4.45,0,0,1,4.46-1.57c1.48.51,2.31,1.78,2.25,3.76,0,1.2-.29,2.39-.49,3.91A17.76,17.76,0,0,0,57.7,23.8c.56-5.19-2.1-9.45-3.85-13.53-1.3,2.92-2.59,6.14-4.13,9.24-1,2-2.44,3.88-3.61,5.85C44.44,28.16,45.56,32.53,47.58,34.21Zm4.77-1.67.41.09c.36-1.74.81-3.48,1-5.24.07-.53-.43-1.54-.82-1.62a2.51,2.51,0,0,0-1.91.67c-1.8,1.72-1.74,3.94-1.5,6.43l1.86-3.4.43.07Z" transform="translate(-29.12 -1.17)"/><path d="M40.3,53,39,58.33a3.34,3.34,0,0,0-.16,1c.11.56-.08,1.14,1.14,1.3.7,0,.9-.77,1.19-1.2s.43-.87.76-1a1.47,1.47,0,0,1,1.3.21c.23.22.17.87,0,1.26a3.5,3.5,0,0,1-2.89,2.74A3.27,3.27,0,0,1,37,58.78c.12-1,.48-2,.67-3,.32-1.74.55-3.49.91-5.22a1.58,1.58,0,0,1,.74-1.31c.63.25.56.82.67,1.26A21.78,21.78,0,0,1,40.3,53Z" transform="translate(-29.12 -1.17)"/></svg>