<svg xmlns="http://www.w3.org/2000/svg" xmlns:xlink="http://www.w3.org/1999/xlink" version="1.1" x="0px" y="0px" viewBox="0 0 100 125" enable-background="new 0 0 100 100" xml:space="preserve"><path d="M93.598,74.809C82.061,62.246,71.312,49.73,61.581,35.678c-4.726-6.824-8.369-19.198-17.127-21.372  c-4.635-1.15-7.611,1.781-9.136,5.796c-2.672,7.041-5.7,13.815-8.667,20.754C19.885,56.688,13.212,72.551,6.257,88.294  c-0.46,1.042,1.877,1.23,2.356,0.595c8.478-11.224,13.885-24.303,19.392-37.163c2.956-6.902,5.928-13.798,9.012-20.644  c1.139-2.529,2.104-5.01,2.881-7.675c0.498-1.709,1.355-6.776,4.155-5.102c3.352,2.004,5.632,8.441,7.374,11.704  c2.589,4.847,5.669,9.344,8.755,13.89c8.15,12.006,17.284,24.638,28.691,33.769C90.771,79.188,95.876,77.29,93.598,74.809z"/></svg>