<svg xmlns="http://www.w3.org/2000/svg" xmlns:xlink="http://www.w3.org/1999/xlink" version="1.1" x="0px" y="0px" viewBox="0 0 100 125" enable-background="new 0 0 100 100" xml:space="preserve" preserveAspectRatio="xMidYMid meet" transform="rotate(90 0 -20)">
    <g fill="currentColor">
        <path d="M68.5,5.4c0.7-0.1,1.1-0.2,1.4-0.3c4.8-0.4,5.4,0.3,5.3,5.1c-0.1,4.6-0.2,9.3,0,13.9c0.4,10.2,1,20.5,1.6,30.7   c0.4,7.8-0.3,15.5-0.5,23.2c-0.1,1.8,0,3.7,0,5.5c0,2.5-0.4,4.8-1.4,7.1c-0.4,0.9-0.5,1.8-0.8,2.8c-0.4,1.6-0.4,1.6-2.5,1.4   c-0.1-0.5-0.2-1.1-0.3-1.7c-0.4-6.3-1.1-12.7-1.1-19c0-14.5-0.7-29.1-1.5-43.6c-0.2-3.4-0.8-6.8-0.8-10.1   C68.1,15.5,68.4,10.5,68.5,5.4z"/>
        <path d="M89.2,93.2c-0.3-3.4-0.9-6.7-1-10.1c-0.2-6.2,0-12.4-0.2-18.6c-0.2-4.6-0.7-9.1-1.1-13.7c0-0.5-0.1-1-0.2-1.5   c-0.3-9.4-0.7-18.9-1-28.3c0-1.4,0.2-2.8,0.3-4.2c0.2-1.8,0.5-3.5,0.6-5.3C87,8.8,87.4,8.3,90,7.8c0.4-0.1,0.7-0.1,1.1-0.1   c3-0.2,3.9,0.7,3.7,3.7c-0.3,3.9-0.5,7.8-0.8,11.7c-0.1,0.9-0.2,1.9-0.5,2.8c-0.9,2.7-0.8,5.5-0.7,8.3c0.2,5.2,0.2,10.5,0.7,15.7   c0.5,5.6,1.1,11.2,0.9,16.8c-0.2,4.9-0.7,9.9-1,14.8c-0.1,2,0,4-0.1,6c0,1.7-0.5,3.2-1.3,4.6C91.5,93,90.8,93.6,89.2,93.2z"/>
        <path d="M54.2,8.1c3.8,0.3,4.2,0.8,4.5,3.9c0.3,3.7,0.8,7.4,1.1,11.2c0.2,2.4,0.2,4.9,0.3,7.3c0.3,5.5,0.6,11,1.1,16.6   c0.5,6,0.8,12.1,0.3,18.1c-0.4,4.4-0.3,8.8-0.5,13.3c-0.2,3.5-0.6,7-0.9,10.6c-0.1,1.4-0.6,2.6-1.9,3.3c-1.4,0.7-2.8,0.4-2.9-1.6   c-0.1-6-0.4-11.9-0.4-17.9c0-3.2,0.3-6.3,0.3-9.5c0-2.9-0.2-5.9-0.4-8.8c-0.3-6.2-0.6-12.4-0.9-18.6c-0.3-4.5-0.7-9-1.1-13.4   C52.3,17.6,53.3,12.9,54.2,8.1z"/>
    </g>
</svg>