<svg xmlns="http://www.w3.org/2000/svg" xmlns:xlink="http://www.w3.org/1999/xlink" version="1.1" x="0px" y="0px" viewBox="0 0 81.4 101.75" style="enable-background:new 0 0 81.4 81.4;" xml:space="preserve"><path d="M26.6,44.8c-0.9,1.5-1.9,2.8-2.6,4.4c-0.9,2.1-2.4,3.8-4,5.3c-0.7,0.7-1.6,0.7-2.3,0.1c-0.6-0.5-1.1-1.2-0.6-2.2  c0.6-1.5,0.9-3.1,1.6-4.5c0.8-1.6,1.9-3,2.8-4.5c0.1-0.2,0.3-0.4,0.2-0.9c-0.3,0.2-0.5,0.4-0.8,0.7c-1,1-2,2-2.8,3.1  c-0.9,1.2-1.7,2.4-2.2,3.7c-1,2.2-2.5,3.7-4.6,4.6c-0.9,0.4-2.8-0.9-2.6-1.9c0.4-1.9,0.9-3.9,1.7-5.6c1.2-2.4,2.7-4.7,4.2-7.4  c-0.7,0.7-1.1,1.1-1.5,1.6c-0.9,1.1-1.8,2.3-2.9,3.2c-0.6,0.5-1.8,0.9-2.5,0.6c-0.9-0.3-1.4-1.3-1.6-2.5C5.8,40,7.2,38.3,8,36.3  c1-2.6,2.8-4.7,4.6-6.6c1.3-1.4,3-2.5,4.5-3.8c2.8-2.2,5.3-4.8,8.3-6.5c4.5-2.6,9.3-4.7,14.8-4.2c1.8,0.2,3.7,0.2,5.6,0.4  c1,0.1,1.9,0.8,2.8,1c3.3,0.6,6.4,2,9.1,3.9c2.2,1.5,4.1,3.6,6.1,5.5c1.5,1.5,3,3,4.4,4.6c0.5,0.5,0.9,1.1,1.3,1.7  c1.7,2.7,3.3,5.4,4.9,8c0.4,0.6,0.9,1,1.3,1.6c1.4,2,2.3,4.3,4.1,6c0.5,0.4,0.8,1,0.2,1.5c-0.7,0.5-1.4,1-2.2,1.1  c-0.4,0.1-1-0.6-1.4-1.1c-0.7-0.9-1.1-1.9-2.2-2.7c-0.8-0.6-1.2-1.8-1.8-2.8c-0.6-1.1-1.1-2.4-1.8-3.4c-1.3-1.9-2.6-3.7-4-5.5  c-0.8-1-1.7-1.8-2.5-2.7c-1.3-1.3-2.7-2.6-3.9-4c-3.3-3.6-7.1-6.2-11.8-7.6c-2.8-0.9-5.6-1.6-8.5-1.9c-2.2-0.2-4.4,0-6.5,0.3  c-3,0.3-5.7,1.6-8.4,3c-0.6,0.3-1.1,0.8-1.7,1.2c-2,1.5-4,2.9-5.9,4.4c-2.2,1.7-4.3,3.4-5.6,6c-0.8,1.5-2.2,2.7-3,4.2  c-0.5,0.9-0.4,2.3-0.4,3.4c0,0.8,1.1,1.3,1.8,0.8c0.6-0.4,1.1-0.8,1.6-1.3c1.6-1.5,3.1-3,4.8-4.4c0.4-0.4,1.2-0.4,1.8-0.6  c-0.1,0.8,0,1.7-0.4,2.4c-0.5,0.9-1.5,1.5-2.1,2.4c-1.3,1.9-2.6,3.8-3.7,5.8c-0.5,1.1-0.6,2.4-0.7,3.7c0,0.4,0.5,1.1,0.9,1.3  c0.3,0.1,0.9-0.3,1.3-0.7c0.6-0.7,1.1-1.5,1.6-2.2c1.9-2.4,3.7-4.9,5.7-7.2c0.7-0.8,1.6-1.5,2.5-2.2c0.3-0.2,0.9-0.2,1.3-0.3  c0,0.6,0.3,1.2,0.1,1.6c-1.1,1.9-2.4,3.6-3.5,5.5c-0.7,1.3-1.3,2.6-1.9,4c-0.3,0.8,0.2,1.5,1,1c1-0.7,1.8-1.6,2.5-2.6  c1.3-1.8,2.5-3.7,3.8-5.4c1-1.3,2.3-2.3,3.3-3.6c0.7-0.9,1.5-1,2.8-0.4c-2.6,3.1-4.5,6.6-5.5,10.5c0.1,0.1,0.3,0.3,0.4,0.4  c0.9-0.7,2-1.3,2.8-2.2c2.7-2.7,5.3-5.5,8.7-7.3c0.6-0.3,1.5-0.5,2.2-0.3c4.1,0.8,7.1,4,6.4,8.7C46.9,53,44.6,56,41,58.3  c-4.7,3-9.8,4.8-15.1,6.3c-2.3,0.7-4.6,1.2-6.9,1.8c-0.3,0.1-0.5,0.2-0.7,0.3c-1.3,0.7-2,0.5-2.7-0.9c-0.4-0.7-0.2-1.3,0.6-1.5  c1.2-0.3,2.5-0.5,3.7-0.8c3.4-0.9,6.7-1.8,10.1-2.7c3.6-1,6.9-2.7,10-4.9c1.2-0.8,2.4-1.8,3.1-3c1.3-2.3,2-4.9,0.7-7.6  c-0.3-0.5-0.8-1.1-1.3-1.2c-1.2-0.4-2.6-0.8-3.8-0.6c-1.3,0.2-2.6,1-3.2,2.5c-0.1,0.2-0.3,0.3-0.5,0.4c-1,1-2,2-3,3  c-1.5,1.4-3,2.8-4.6,4c-0.4,0.3-1.4,0.1-1.8-0.2c-0.4-0.3-0.5-1.2-0.4-1.7c0.6-2.2,1.3-4.3,2-6.5C26.9,45,26.7,44.9,26.6,44.8z"/><path d="M59.8,43.5c0.6,2.6-0.4,4.9-1.3,7.2c-0.1,0.3-0.2,0.6-0.4,0.7c-0.4,0.2-0.9,0.4-1.3,0.6c-0.1-0.5-0.3-1-0.2-1.4  c0.4-1,0.9-2,1.3-3c0.2-0.5,0.3-1.1,0.2-1.6c-0.3-2.2-0.5-4.4-2-6.3c-0.4-0.5-0.6-1.5,0.4-1.9c0.9-0.4,1.2,0.3,1.5,0.9  c0.7,1.6,1.4,3.2,2.1,4.8C60,43.5,59.9,43.5,59.8,43.5z"/><path d="M28.7,28.8c0.2-0.3,0.3-0.8,0.5-1c2-1,4-2.1,6-3c1.2-0.5,2.5-0.7,3.7-1.1c0.7-0.2,1.4-0.3,2.1-0.5c0.3,0.3,0.6,0.6,1,0.9  c-0.3,1.2-1.3,1.1-2.2,1.4c-2.4,0.6-4.8,1.4-7.1,2.1c-1.3,0.4-2.5,1-3.8,1.5C28.9,29.1,28.8,29,28.7,28.8z"/><path d="M5.7,53.5c0,0.5-0.1,0.9-0.1,1.4c-0.1,0.9-0.4,1.9-0.3,2.8c0.1,2-1.1,3.4-2.3,4.7c-0.6,0.7-2,0-2-1c0-1.1,0.2-2.4,0.7-3.3  c1-1.7,2.3-3.2,3.5-4.8C5.4,53.4,5.6,53.5,5.7,53.5z M4.4,56.6c-1.8,0.8-2.8,3.6-1.7,4.7C4.2,60.1,4.4,58.4,4.4,56.6z"/><path d="M34.1,32.5c-0.1-1.2,0.7-1.3,1.4-1.6c2.3-0.7,4.6-1.4,6.9-2c0.7-0.2,1.3,0.1,1.2,0.9c0,0.4-0.7,1-1.1,1  c-2.7,0.1-5.2,0.8-7.7,1.8c-0.2,0.1-0.3,0.1-0.5,0C34.3,32.6,34.2,32.5,34.1,32.5z"/><path d="M64.5,42c0.2,2.1,0.5,4.1-0.3,6.1c-0.1,0.3-0.8,0.4-1.2,0.6c0-0.4-0.1-0.8,0-1.2c0.2-1.3,0.4-2.6,0.7-3.9  c0.1-0.5,0.2-1.1,0.3-1.6C64.2,42,64.4,42,64.5,42z"/><path d="M43.4,64c3-1.8,6-3.5,8.9-5.3C52.1,60.1,45,64.4,43.4,64z"/><path d="M50.6,63.2c1.2-1,2.4-2,3.6-3c0.1,0.1,0.2,0.2,0.3,0.3c-1.2,1-2.4,2-3.6,3C50.8,63.5,50.7,63.3,50.6,63.2z"/>
</svg>